inDegrees=yes
name=ik_S51_A01_T02
DataType=double
version=3
OpenSimVersion=4.3-2021-08-27-4bc7ad9
endheader
time	pelvis_tilt	pelvis_list	pelvis_rotation	pelvis_tx	pelvis_ty	pelvis_tz	hip_flexion_r	hip_adduction_r	hip_rotation_r	knee_angle_r	knee_angle_r_beta	ankle_angle_r	subtalar_angle_r	mtp_angle_r	hip_flexion_l	hip_adduction_l	hip_rotation_l	knee_angle_l	knee_angle_l_beta	ankle_angle_l	subtalar_angle_l	mtp_angle_l	lumbar_extension	lumbar_bending	lumbar_rotation	arm_flex_r	arm_add_r	arm_rot_r	elbow_flex_r	pro_sup_r	wrist_flex_r	wrist_dev_r	arm_flex_l	arm_add_l	arm_rot_l	elbow_flex_l	pro_sup_l	wrist_flex_l	wrist_dev_l
0	0	0	0	0	0.9399999999999999	0	0	0	0	0	0	0	0	0	0	0	0	0	0	0	0	0	0	0	0	0	0	0	0	89.99999999963507	0	0	0	0	0	0	89.99999999869995	0	0
0.02	0.01359503754980539	-1.728820138133853	-86.78070914355847	0	0.9399999999999999	0	-2.069751295555654	-1.846595998618612	-6.861565013968857	-2.989207901072263	-0.05217151990033992	0	0	0	-1.026302832891723	-3.363200032925133	-4.041908138645168	0.7003370761508183	0.01222318785262204	0	0	0	0	0	0	1.83841101268526	-1.83841101268526	0.3272422007692237	9.080492972912536	89.67275781809182	0	0	1.83841101268526	-1.83841101268526	0.3272422007692237	9.080492972912536	89.67275781721807	0	0
0.04	0.02308370018174457	-1.527780670274312	-86.71615852959485	0	0.9399999999999999	0	-1.819490128975289	-1.89643092880867	-6.941746483495934	-2.970541783968754	-0.05184573469832086	0	0	0	-0.6187916145206466	-3.336590052130077	-3.943566465868079	0.882511360964141	0.01540272893508042	0	0	0	0	0	0	2.24876441681847	-2.24876441681847	0.4043464608041683	10.67303151358392	89.59565356261496	0	0	2.24876441681847	-2.24876441681847	0.4043464608041683	10.67303151358392	89.59565356175561	0	0
0.06	0.02529635119810815	-1.347692723081834	-86.69933025303985	0	0.9399999999999999	0	-1.614339504152263	-1.990564557413799	-7.027621328531153	-2.969359001847515	-0.05182509125597153	0	0	0	-0.295532948673528	-3.344088456624501	-3.846858664631726	0.9442960642715287	0.01648107543516216	0	0	0	0	0	0	2.252290325793608	-2.252290325793609	0.4050322872931662	10.70085270120183	89.59496773616698	0	0	2.252290325793608	-2.252290325793609	0.4050322872931662	10.70085270120183	89.59496773530772	0	0
0.08	0.02992109057742196	-1.091257735649067	-86.72306587330145	0	0.9399999999999999	0	-1.313881682989604	-2.078372706106749	-7.058009115763782	-3.064909018608552	-0.05349275364878738	0	0	0	0.06030363146748118	-3.335812822403234	-3.853270211856263	1.053363601543795	0.01838466306760485	0	0	0	0	0	0	2.924221272739876	-2.924221272739877	0.5280800869925358	12.88905120862489	89.47191994369093	0	0	2.924221272739876	-2.924221272739877	0.5280800869925358	12.88905120862489	89.47191994285473	0	0
0.1	0.03089129267621956	-0.979923456900514	-86.798607967675	0	0.9399999999999999	0	-1.111632662275895	-2.178311419184634	-7.069380542419077	-3.051233964145883	-0.05325407892302428	0	0	0	0.2278160941404706	-3.348314787878586	-3.897449865510732	1.067680560432005	0.01863454113907678	0	0	0	0	0	0	2.929307735594642	-2.929307735594643	0.5290644808833707	12.92595453157589	89.47093554985879	0	0	2.929307735594642	-2.929307735594643	0.5290644808833707	12.92595453157589	89.4709355490228	0	0
0.12	0.03635760625428634	-0.8710014790220445	-86.85625964334396	0	0.9399999999999999	0	-0.9887277298708009	-2.199369135645435	-7.026764724293456	-3.117078501918111	-0.05440328290160341	0	0	0	0.3368989221625547	-3.335748740211991	-3.952979282250484	1.048712164043558	0.01830348016827498	0	0	0	0	0	0	3.564225612363259	-3.564225612363259	0.6437687640832326	15.01760089444828	89.35623127337155	0	0	3.564225612363259	-3.564225612363259	0.6437687640832326	15.01760089444828	89.35623127255703	0	0
0.14	0.04502935623717699	-0.7865986574607527	-86.93235025629866	0	0.9399999999999999	0	-0.9038842477395507	-2.224442416043861	-6.942387702225077	-3.245042678147654	-0.05663667910141122	0	0	0	0.4655530734365613	-3.32412545628959	-3.989742731598993	1.008176339719481	0.01759599656880982	0	0	0	0	0	0	4.126217205877004	-4.126217205877005	0.7449000342563401	16.8572392264203	89.25510000911278	0	0	4.126217205877004	-4.126217205877005	0.7449000342563401	16.8572392264203	89.25510000831719	0	0
0.16	0.06996546687283621	-0.7140556329908166	-86.94481401357982	0	0.9399999999999999	0	-0.8152544592841096	-2.267643655662017	-6.944106931369583	-3.180575321406322	-0.0555115114662172	0	0	0	0.5583146118283322	-3.289566872946351	-3.995894467753534	1.113417571669562	0.01943280257519379	0	0	0	0	0	0	4.226179737644042	-4.226179737644043	0.7630456099948429	17.21760422111711	89.23695443443823	0	0	4.226179737644042	-4.226179737644043	0.7630456099948429	17.21760422111711	89.23695443364612	0	0
0.18	0.09138465761678723	-0.6704978306021379	-86.95224866068615	0	0.9399999999999999	0	-0.7197893813030612	-2.343766374512679	-6.922134991665843	-3.155920590850872	-0.05508120524183256	0	0	0	0.7321090285391898	-3.270367884176557	-3.944020398016132	1.190047159369356	0.02077024118500095	0	0	0	0	0	0	4.722153867188405	-4.722153867188406	0.8520687574540307	18.84866132010509	89.14793129218353	0	0	4.722153867188405	-4.722153867188406	0.8520687574540307	18.84866132010509	89.14793129140813	0	0
0.2	0.08586623365666161	-0.6008470285755793	-86.95196926319173	0	0.9399999999999999	0	-0.6409200408723292	-2.339937520136806	-6.895652792289868	-3.188971491543298	-0.05565805227966505	0	0	0	0.8524720594753322	-3.25874949011622	-3.91884080141533	1.238706386467157	0.02161950490933322	0	0	0	0	0	0	4.82574220427329	-4.825742204273291	0.8704206286153795	19.15960682885509	89.12957942209188	0	0	4.82574220427329	-4.825742204273291	0.8704206286153795	19.15960682885509	89.12957942132007	0	0
0.22	0.0737104533034699	-0.5573612577735441	-86.93531955478703	0	0.9399999999999999	0	-0.5962298464799787	-2.3598158623109	-6.854377409334051	-3.253830447306964	-0.05679005460714637	0	0	0	0.8917037933755755	-3.257723301961823	-3.90887552096063	1.227143111965205	0.02141768769696225	0	0	0	0	0	0	4.943143958640328	-4.943143958640329	0.8911427465004145	19.49457050104765	89.10885730541337	0	0	4.943143958640328	-4.943143958640329	0.8911427465004145	19.49457050104765	89.10885730464541	0	0
0.24	0.06811836093315415	-0.5658366683922352	-86.93739882367261	0	0.9399999999999999	0	-0.629756392088506	-2.339142980875371	-6.792435945366915	-3.284701220786009	-0.05732885124699307	0	0	0	0.8657617400461253	-3.252237860314902	-3.91189990160841	1.181831569586095	0.02062685209328985	0	0	0	0	0	0	5.061267703288068	-5.061267703288069	0.9119829174413514	19.8374234914217	89.08801713568579	0	0	5.061267703288068	-5.061267703288069	0.9119829174413514	19.8374234914217	89.08801713492176	0	0
0.26	0.06107891768690839	-0.5173731986902769	-86.92482560771764	0	0.9399999999999999	0	-0.5752225912944167	-2.34029464186136	-6.789056534731539	-3.249540574043703	-0.0567151821942092	0	0	0	0.9305962282115604	-3.251567932045706	-3.888165161398455	1.162398257151851	0.02028767680674353	0	0	0	0	0	0	5.590895964193851	-5.590895964193852	1.005138410991786	21.4465327498675	88.99486164755589	0	0	5.590895964193851	-5.590895964193852	1.005138410991786	21.4465327498675	88.99486164680937	0	0
0.28	0.04759540573089932	-0.4257533137175939	-86.89144961035161	0	0.9399999999999999	0	-0.4825581348670659	-2.299675238100209	-6.79194716924684	-3.259549319630404	-0.05688986775869159	0	0	0	1.040461659392252	-3.273186066173824	-3.861449032890612	1.207805901540695	0.02108018970690359	0	0	0	0	0	0	6.034227231073563	-6.034227231073562	1.082642207215381	22.85154829808839	88.91735785583728	0	0	6.034227231073563	-6.034227231073562	1.082642207215381	22.85154829808839	88.91735785510522	0	0
0.3	0.03396966692143952	-0.3942324715800342	-86.88947953527094	0	0.9399999999999999	0	-0.4514422381169627	-2.281869069259507	-6.787321374170593	-3.266643215632434	-0.05701367960072107	0	0	0	1.072409850505249	-3.291992710612193	-3.857590427155576	1.30325819652294	0.02274614653292862	0	0	0	0	0	0	6.079112836227335	-6.079112836227335	1.090472688184768	22.99480721928225	88.90952737532298	0	0	6.079112836227335	-6.079112836227335	1.090472688184768	22.99480721928225	88.90952737459237	0	0
0.32	0.03239871381449245	-0.343710847263939	-86.89446534795788	0	0.9399999999999999	0	-0.471329726683792	-2.327767903828011	-6.764453514949762	-3.297482121227537	-0.05755192004106733	0	0	0	1.175593966507135	-3.301775338312499	-3.865071689996174	1.453736880572688	0.025372495023665	0	0	0	0	0	0	6.151359519269474	-6.151359519269473	1.103047211396857	23.21747859332266	88.89695285284115	0	0	6.151359519269474	-6.151359519269473	1.103047211396857	23.21747859332266	88.89695285211289	0	0
0.34	0.02109643716124666	-0.214485249990654	-86.89464778657172	0	0.9399999999999999	0	-0.4150976905566443	-2.351638782997653	-6.70096414609875	-3.342505164283003	-0.05833772038165237	0	0	0	1.30068391694419	-3.312146426819831	-3.855835831857215	1.51681812335757	0.0264734704065111	0	0	0	0	0	0	6.15487529234297	-6.154875292342968	1.103695917756933	23.23496440308683	88.8963041465193	0	0	6.15487529234297	-6.154875292342968	1.103695917756933	23.23496440308683	88.89630414579112	0	0
0.36	0.04201806060496209	-0.08143374928839177	-86.86935090177268	0	0.9399999999999999	0	-0.2807520795643454	-2.365744072177358	-6.730108822047877	-3.271022192860805	-0.05709010717122599	0	0	0	1.542211515526585	-3.311838236939792	-3.832608066802231	1.671071412477973	0.02916569818369288	0	0	0	0	0	0	6.250039325372335	-6.250039325372334	1.120527804282858	23.56913257116033	88.87947226097499	0	0	6.250039325372335	-6.250039325372334	1.120527804282858	23.56913257116033	88.87947226024981	0	0
0.3800000000000001	0.1153603861694969	0.1885099768856614	-86.82415017760245	0	0.9399999999999999	0	-0.08138779334716693	-2.481763381674457	-6.57719471507464	-3.362782548265628	-0.05869162749584034	0	0	0	1.821979251490317	-3.207918834986115	-3.758057287873827	1.779410044686276	0.03105656402283494	0	0	0	0	0	0	6.254950195673366	-6.254950195673365	1.121435950229715	23.59356202564437	88.87856411508169	0	0	6.254950195673366	-6.254950195673365	1.121435950229715	23.59356202564437	88.87856411435669	0	0
0.4000000000000001	0.1700972523471229	0.3809928163585407	-86.84713515915587	0	0.9399999999999999	0	0.1165343669682249	-2.543629679420407	-6.509750702336675	-3.359835734111157	-0.05864019588640045	0	0	0	2.486508918874951	-3.186293339781344	-4.450442929630871	2.704605941183419	0.04720427864265077	0	0	0	0	0	0	6.264096881222704	-6.264096881222702	1.123133047487545	23.63947158322977	88.87686701792401	0	0	6.264096881222704	-6.264096881222702	1.123133047487545	23.63947158322977	88.87686701719934	0	0
0.4200000000000001	0.1928393936477102	0.540637713991691	-86.92969555419363	0	0.9399999999999999	0	0.05197048263861826	-2.639468346030548	-6.083019504506582	-3.693111557999817	-0.06445695633055433	0	0	0	3.042852154062295	-3.143280115184271	-4.744242584900869	3.506760708503783	0.06120452044296013	0	0	0	0	0	0	6.271197881856353	-6.271197881856351	1.124449533055654	23.67499330115487	88.87555053243361	0	0	6.271197881856353	-6.271197881856351	1.124449533055654	23.67499330115487	88.87555053170918	0	0
0.4400000000000001	0.1689256121354269	0.5772624642341497	-86.91850298142296	0	0.9399999999999999	0	-0.02968033795697717	-2.639683821365074	-6.105516795513407	-3.837936036979141	-0.06698462032622886	0	0	0	3.592507148991344	-3.102036172031859	-4.717966195875539	5.153250581069396	0.08994118981997193	0	0	0	0	0	0	6.278139152068253	-6.278139152068252	1.125699122312257	23.70675074454313	88.87430094325026	0	0	6.278139152068253	-6.278139152068252	1.125699122312257	23.70675074454313	88.87430094252629	0	0
